<svg width="512" height="514" viewBox="0 0 512 514" fill="black" xmlns="http://www.w3.org/2000/svg">
<path d="M317.1 257L499.2 74.9C515.9 58.2 515.9 31.2 499.2 14.5C482.5 -2.19999 455.5 -2.19999 438.8 14.5L256.7 196.6L74.6 13.5C57.9 -3.19999 30.9 -3.19999 14.2 13.5C5.8 21.9 1.2 33 1.2 44.2C1.2 55.4 5.8 66.5 14.2 74.9L196.3 257L13.2 439.1C4.8 447.5 0.199997 458.6 0.199997 469.8C0.199997 481 4.8 492.1 13.2 500.5C29.9 517.2 56.9 517.2 73.6 500.5L256.7 317.4L438.8 499.5C455.5 516.2 482.5 516.2 499.2 499.5C515.9 482.8 515.9 455.8 499.2 439.1L317.1 257Z"/>
</svg>
